# xmcd CD database file
#
# Track frame offsets:
#	150
#	4137
#	23811
#	53344
#	76728
#	103591
#	123619
#	128691
#	156460
#	178940
#	205307
#	231427
#	260981
#	289877
#	299477
#
# Disc length: 4464 seconds
#
# Revision: 14
# Processed by: cddbd v1.5.1PL0 Copyright (c) Steve Scherf et al.
# Submitted via: CDex 1.51
#
DISCID=de116e0f
DTITLE=ケツメイシ - ケツノポリス3
DYEAR=2003
DGENRE=Japanese Pop
TTITLE0=(バテバテ)
TTITLE1=はじまりの合図
TTITLE2=夏の思い出
TTITLE3=1日
TTITLE4=家に帰ろう
TTITLE5=明日の少年
TTITLE6=(マブーハイ)
TTITLE7=夜の天使
TTITLE8=失恋
TTITLE9=門限やぶり
TTITLE10=痔持ち一代
TTITLE11=幸せをありがとう
TTITLE12=太陽
TTITLE13=(カントゥータタンヨー)
TTITLE14=花鳥風月 (Album Mix)
EXTD=YEAR: 2003
EXTT0=
EXTT1=
EXTT2=
EXTT3=
EXTT4=
EXTT5=
EXTT6=
EXTT7=
EXTT8=
EXTT9=
EXTT10=
EXTT11=
EXTT12=
EXTT13=
EXTT14=
PLAYORDER=
